<svg version="1.2" xmlns="http://www.w3.org/2000/svg" viewBox="0 0 512 512" width="512" height="512">
	<title>graduacao-svg</title>
	<style>
		.s0 { fill: #00b6ea } 
	</style>
	<g id="Layer">
		<path id="Layer" fill-rule="evenodd" class="s0" d="m255.5 8.1c1.1-0.1 56.7 18.1 123.5 40.4c90.3 30.1 121.9 41 123.3 42.6c0.9 1.2 1.7 3.3 1.7 4.8c0 5.4-2.1 6.6-21.5 13.1l-18.5 6.2v68.3l3.2 1.5c3 1.4 3.9 3.3 12 23.5l8.8 21.9v10.4c0 9.6-0.2 10.5-2.5 12.7l-2.4 2.5h-54.2l-2.4-2.5c-2.3-2.2-2.5-3.1-2.5-12.7v-10.4l8.8-21.9c8.1-20.2 9-22.1 12-23.5l3.2-1.5v-31.3c0-17.1-0.3-31.2-0.8-31.2c-0.4 0-9.3 2.9-19.7 6.3l-19 6.4l-0.5 46.9c-0.3 25.8-0.8 47.4-1.2 48c-1.7 2.6-25.2 17.5-37.3 23.6c-23.4 11.9-45.8 19.6-69.2 23.7c-53.9 9.6-107.5 1.7-156.5-23.1c-12.8-6.4-36.8-21.5-38.5-24.1c-0.5-0.7-1-22.3-1.3-48.1l-0.5-46.9l-46-15.4c-33.1-11-46.5-15.9-47.7-17.4c-2.3-2.7-2.3-7.1 0-9.8c1.2-1.6 32.9-12.5 122.7-42.5c66.6-22.3 121.9-40.5 123-40.5zm0 17c-2.4 0.1-212.5 70.2-212.5 70.9c0 0.3 47.9 16.5 106.5 36l106.5 35.5l106.5-35.5c58.6-19.5 106.5-35.7 106.5-36c0-0.3-47.6-16.4-105.8-35.8c-58.1-19.3-106.6-35.2-107.7-35.1zm0.5 159.4l-68-22.7l-68-22.6v40.7l9.2 6.1c27.4 18 59.9 30.3 94.8 35.6c14.1 2.2 47.1 2.5 60.5 0.6c36.6-5.3 69.1-17.2 98.3-36.1l9.2-6v-40.9l-68 22.6zm-135.4 15.5c-0.3 0-0.6 4.5-0.6 10v9.9l7.3 4.9c27.9 18.9 60.1 31.2 96.5 36.9c15.1 2.4 49.5 2.4 65.2-0.1c23.4-3.6 47.4-11 68-20.9c9.8-4.7 26-14.1 31.8-18.5l3.2-2.4v-9.9c0-5.5-0.3-9.9-0.6-9.9c-0.3 0-3.8 2-7.8 4.4c-28.4 17.2-61.7 28.7-98.1 33.8c-11.6 1.6-47.4 1.6-59 0c-36.2-5.1-68.6-16.2-97.1-33.3c-4.5-2.7-8.5-4.9-8.8-4.9zm335.4 0c-2.5 0-3 1-9.3 16.8c-3.7 9.2-6.7 18.2-6.7 20v3.2h32v-3.2c0-1.8-3-10.8-6.7-20c-6.3-15.8-6.8-16.8-9.3-16.8z"/>
		<path id="Layer" class="s0" d="m271.6 92.5c2.9 15.8-15.5 25.9-26.7 14.6c-7.9-7.9-5.5-21.3 4.6-25.7c9-4 20.3 1.7 22.1 11.1z"/>
		<path id="Layer" fill-rule="evenodd" class="s0" d="m329.3 306.1c8.6 2 9.3 2.1 14.2 0.5c11.6-3.6 22.6-3.1 34.6 1.8l6 2.4l6.7-3.1c5.9-2.8 7.7-3.2 15.2-3.2c7.3 0 9.3 0.4 14.2 2.8c7.8 3.8 13.9 10.8 17.2 19.7c2.9 7.9 3.2 10.8 1.4 13.3c-2.6 3.4-110.5 78.7-119.8 83.6c-11.6 6-23.9 10.4-37.3 13.3c-8.2 1.7-13.5 2.2-27.2 2.2c-16.1 0-18-0.2-35-3.9c-16.8-3.7-19.1-4-34-3.9c-17.8 0-27.2 1.7-40.8 7.4c-10.9 4.6-10.5 3.5-5.3 13.8c4.7 9.4 5.3 12 3.6 15.2c-1.4 2.6-60.1 36-63.3 36c-1.3 0-3.4-0.8-4.5-1.8c-2.5-2.1-67.2-139.6-67.2-142.7c0-1.3 0.8-3.2 1.7-4.3c2-2.3 59.6-27.2 62.8-27.2c3.7 0 5.9 2.6 10.9 12.8l4.9 10.1l5.8-2.9c3.1-1.6 13.2-7.8 22.3-13.9c9.1-6 20-12.3 24.2-14.1c28-11.7 56.9-10.3 85.3 4l8.1 4h35.3l11.2-8.4c12.6-9.5 17.8-12.4 25-14.2c7.4-1.8 13.7-1.6 23.8 0.7zm30.4 45.2l-28.7 24.7h-83v-16h35c31.1 0 35-0.2 35-1.6c0-2.7-10.1-11.9-14.6-13.2c-2.9-0.8-14.5-1.2-38.6-1.2h-34.6l-12.3-5.9c-16.5-7.9-23.2-9.5-38.9-9.5c-20.8 0-31 3.7-55.6 20.1c-8.3 5.6-17.8 11.5-21.2 13.2c-3.4 1.7-6.2 3.4-6.2 3.6c0 0.5 31 62.7 31.5 63.3c0.2 0.2 2.5-0.8 5.2-2.1c6.7-3.4 18.3-7.2 28.3-9.4c6.4-1.4 12.6-1.8 25.5-1.7c15.8 0 18.2 0.3 34 3.8c21.1 4.6 36.1 5.6 51 3.2c28.7-4.5 36.4-8.6 100.1-53.6c32.5-22.9 50.3-36.1 50.4-37.2c0-2.5-5.9-8.9-9.7-10.4c-10.3-4.3-17.1-0.4-52.6 29.9zm1.2-30.8c-7.1-0.5-13.5 0.9-19.3 4.3c-4 2.4-17.6 13.1-17.6 13.9c0 0.3 1.3 2.2 2.9 4.2c1.5 2 3.6 5.1 4.5 6.9l1.7 3.3l6.7-5.8c3.7-3.2 11.8-10.1 17.9-15.3c6.1-5.2 10.8-9.8 10.4-10.3c-0.4-0.4-3.6-1-7.2-1.2zm-40.4-0.4h-4.5c-5.1 0.1-8 0.8-13 3.4c-6.6 3.3-6.7 3.8-0.4 5.2c6.4 1.5 6.7 1.4 13.9-5zm-253 26.9c-1.1 0.1-39.2 16.3-40 17.1c-0.7 0.7 55.2 119.3 56.4 119.7c1 0.3 37.5-20.1 39.9-22.3c1.1-1-3.9-11.7-27-57.9c-15.5-31.1-28.7-56.6-29.3-56.6z"/>
	</g>
</svg>